<?xml version="1.0" standalone="no"?><!DOCTYPE svg PUBLIC "-//W3C//DTD SVG 1.1//EN" "http://www.w3.org/Graphics/SVG/1.1/DTD/svg11.dtd"><svg width="200" height="200" viewBox="0 0 200 200" version="1.1" xmlns="http://www.w3.org/2000/svg" xmlns:xlink="http://www.w3.org/1999/xlink"><defs><style type="text/css"><![CDATA[
@font-face { font-family: ifont; src: url("http://at.alicdn.com/t/font_1442373896_4754455.eot?#iefix") format("embedded-opentype"), url("http://at.alicdn.com/t/font_1442373896_4754455.woff") format("woff"), url("http://at.alicdn.com/t/font_1442373896_4754455.ttf") format("truetype"), url("http://at.alicdn.com/t/font_1442373896_4754455.svg#ifont") format("svg"); }

]]></style></defs><g class="transform-group"><g transform="scale(0.1953125, 0.1953125)"><path d="M67.527673 373.748263M960.907518 367.43651c-57.307495-206.025307-177.380001-236.042971-286.878251-205.513654-59.98048 15.461133-84.42622 38.885636-162.029779 42.467207-78.968705-7.163143-82.038749-31.722492-159.643331-48.436152C183.672569 124.913964 120.909605 203.879434 74.687016 351.064634L62.407862 387.222135c-127.577741 411.369092-21.575249 471.573265 25.583703 485.046115 115.297563 30.700209 217.632376-159.634744 293.700913-177.031972 71.634369-19.783579 158.61896-18.419512 236.052642-4.774747 97.899622 11.256368 160.665656 163.387207 274.938848 185.899944C1032.712786 886.936321 1067.506622 729.347167 960.907518 367.43651zM880.33011 840.503802C796.831043 808.141744 732.019336 681.934321 634.801264 661.468197c-86.984591-21.148669-230.935902-10.915607-257.574677 1.731434-84.650334 14.470573-195.939443 212.224496-285.226567 176.664605-108.730739-45.366234-38.978307-301.269531-5.030779-425.354618l14.240913-40.761356c50.911569-168.078043 105.290242-210.207559 245.859388-186.241728 43.492295 5.884011 100.799791 48.351218 165.740439 48.607044 75.769719 3.837398 150.218295-50.909483 220.317642-51.421136 157.169899-9.977235 190.601659 173.515892 208.679103 233.56964C1048.318845 804.304346 962.101765 865.702718 880.33011 840.503802zM677.816679 427.130054m-40.933925 0a40 40 0 1 0 81.86785 0 40 40 0 1 0-81.86785 0ZM831.318898 427.130054m-40.933925 0a40 40 0 1 0 81.86785 0 40 40 0 1 0-81.86785 0ZM755.079462 503.878019m-40.933925 0a40 40 0 1 0 81.86785 0 40 40 0 1 0-81.86785 0ZM755.079462 350.382089m-40.933925 0a40 40 0 1 0 81.86785 0 40 40 0 1 0-81.86785 0ZM309.412376 427.126984m-81.86785 0a80 80 0 1 0 163.7357 0 80 80 0 1 0-163.7357 0ZM309.412376 273.633101c-84.776206 0-153.502219 68.723198-153.502219 153.49593 0 84.773755 68.726014 153.49593 153.502219 153.49593s153.502219-68.723198 153.502219-153.49593C462.914595 342.356298 394.188582 273.633101 309.412376 273.633101zM309.412376 548.647665c-67.11424 0-121.52259-54.405097-121.52259-121.517611 0-67.112514 54.40835-121.517611 121.52259-121.517611s121.52259 54.405097 121.52259 121.517611C430.934966 494.242568 376.526617 548.647665 309.412376 548.647665z" fill="#a9b7b7"></path></g></g></svg>